<svg width="100" height="100" viewBox="0 0 100 100" fill="none" xmlns="http://www.w3.org/2000/svg">
<path d="M25.6348 10C32.1292 17.2051 40.6573 21.5791 50 21.5791C59.3427 21.5791 67.8708 17.2051 74.3652 10H90V90H10V10H25.6348ZM72.5059 53.7305C70.7784 53.7305 69.2635 54.061 67.9619 54.7236C66.6603 55.3626 65.6428 56.2623 64.9092 57.4219C64.1992 58.5815 63.8447 59.9544 63.8447 61.54V72.5449C63.8447 74.1069 64.1992 75.4798 64.9092 76.6631C65.6428 77.8227 66.6604 78.7338 67.9619 79.3965C69.2635 80.0354 70.7784 80.3554 72.5059 80.3555C74.257 80.3555 75.7719 80.0354 77.0498 79.3965C78.3514 78.7339 79.3574 77.8226 80.0674 76.6631C80.801 75.4798 81.168 74.1069 81.168 72.5449H75.8438C75.8438 73.5626 75.5477 74.3558 74.9561 74.9238C74.3881 75.4682 73.5709 75.7402 72.5059 75.7402C71.4412 75.7402 70.6131 75.4679 70.0215 74.9238C69.4535 74.3558 69.1689 73.5626 69.1689 72.5449V61.54C69.1689 60.4987 69.4535 59.7055 70.0215 59.1611C70.6131 58.6171 71.4412 58.3448 72.5059 58.3447C73.5708 58.3447 74.3881 58.6168 74.9561 59.1611C75.5477 59.7055 75.8438 60.4987 75.8438 61.54H81.168C81.168 59.9544 80.801 58.5815 80.0674 57.4219C79.3574 56.2623 78.3514 55.3626 77.0498 54.7236C75.7719 54.0611 74.257 53.7305 72.5059 53.7305ZM26.2422 54.085L19.8877 80H25.3193L26.5615 74.1426H32.7383L33.9814 80H39.4121L32.9873 54.085H26.2422ZM42.6289 54.085V80H47.8828V70.2021H50.3682L54.5576 80H60.3438L55.4443 69.3496C56.8406 68.758 57.9414 67.7999 58.7461 66.4746C59.5744 65.1493 59.9883 63.6462 59.9883 61.9658C59.9883 60.3567 59.6098 58.9606 58.8525 57.7773C58.1189 56.594 57.0775 55.6829 55.7285 55.0439C54.3796 54.405 52.7824 54.085 50.9365 54.085H42.6289ZM30.04 60.9717C30.2294 61.8473 30.4076 62.7354 30.5732 63.6348L31.8154 69.8828H27.4492L28.7627 63.5986C28.952 62.6994 29.1178 61.8121 29.2598 60.9365C29.4254 60.0611 29.5557 59.3749 29.6504 58.8779C29.745 59.3748 29.8745 60.0728 30.04 60.9717ZM50.9365 58.7002C52.1197 58.7003 53.031 59.0078 53.6699 59.623C54.3325 60.2384 54.6641 61.1026 54.6641 62.2148C54.664 63.2795 54.3323 64.1076 53.6699 64.6992C53.031 65.2908 52.1197 65.5868 50.9365 65.5869H47.8828V58.7002H50.9365Z" fill="#E68385"/>
</svg>
