<svg id="visual" viewBox="0 0 960 540" width="960" height="540" xmlns="http://www.w3.org/2000/svg" xmlns:xlink="http://www.w3.org/1999/xlink" version="1.1"><path d="M0 39L87 82L175 50L262 55L349 39L436 44L524 71L611 55L698 66L785 50L873 93L960 77L960 0L873 0L785 0L698 0L611 0L524 0L436 0L349 0L262 0L175 0L87 0L0 0Z" fill="#1e293b"></path><path d="M0 141L87 222L175 222L262 212L349 293L436 298L524 217L611 190L698 163L785 260L873 271L960 282L960 75L873 91L785 48L698 64L611 53L524 69L436 42L349 37L262 53L175 48L87 80L0 37Z" fill="#1a2436"></path><path d="M0 368L87 341L175 347L262 336L349 374L436 395L524 341L611 309L698 352L785 368L873 357L960 401L960 280L873 269L785 258L698 161L611 188L524 215L436 296L349 291L262 210L175 220L87 220L0 139Z" fill="#162032"></path><path d="M0 498L87 455L175 465L262 428L349 460L436 476L524 471L611 438L698 428L785 471L873 465L960 498L960 399L873 355L785 366L698 350L611 307L524 339L436 393L349 372L262 334L175 345L87 339L0 366Z" fill="#121b2e"></path><path d="M0 541L87 541L175 541L262 541L349 541L436 541L524 541L611 541L698 541L785 541L873 541L960 541L960 496L873 463L785 469L698 426L611 436L524 469L436 474L349 458L262 426L175 463L87 453L0 496Z" fill="#0f172a"></path></svg>