<svg id="visual" viewBox="0 0 900 600" width="900" height="600" xmlns="http://www.w3.org/2000/svg" xmlns:xlink="http://www.w3.org/1999/xlink" version="1.1"><path d="M0 61L82 109L164 103L245 73L327 97L409 103L491 103L573 97L655 79L736 73L818 103L900 79L900 0L818 0L736 0L655 0L573 0L491 0L409 0L327 0L245 0L164 0L82 0L0 0Z" fill="#1e293b"></path><path d="M0 109L82 169L164 187L245 115L327 187L409 181L491 187L573 175L655 157L736 151L818 163L900 121L900 77L818 101L736 71L655 77L573 95L491 101L409 101L327 95L245 71L164 101L82 107L0 59Z" fill="#1a2436"></path><path d="M0 325L82 283L164 391L245 241L327 391L409 301L491 343L573 295L655 367L736 337L818 283L900 289L900 119L818 161L736 149L655 155L573 173L491 185L409 179L327 185L245 113L164 185L82 167L0 107Z" fill="#162032"></path><path d="M0 523L82 487L164 547L245 469L327 475L409 523L491 535L573 499L655 445L736 463L818 475L900 445L900 287L818 281L736 335L655 365L573 293L491 341L409 299L327 389L245 239L164 389L82 281L0 323Z" fill="#121b2e"></path><path d="M0 601L82 601L164 601L245 601L327 601L409 601L491 601L573 601L655 601L736 601L818 601L900 601L900 443L818 473L736 461L655 443L573 497L491 533L409 521L327 473L245 467L164 545L82 485L0 521Z" fill="#0f172a"></path></svg>