<svg id="visual" viewBox="0 0 900 600" width="900" height="600" xmlns="http://www.w3.org/2000/svg" xmlns:xlink="http://www.w3.org/1999/xlink" version="1.1"><path d="M0 43L82 91L164 55L245 61L327 43L409 49L491 79L573 61L655 73L736 55L818 103L900 85L900 0L818 0L736 0L655 0L573 0L491 0L409 0L327 0L245 0L164 0L82 0L0 0Z" fill="#1e293b"></path><path d="M0 157L82 247L164 247L245 235L327 325L409 331L491 241L573 211L655 181L736 289L818 301L900 313L900 83L818 101L736 53L655 71L573 59L491 77L409 47L327 41L245 59L164 53L82 89L0 41Z" fill="#1a2436"></path><path d="M0 409L82 379L164 385L245 373L327 415L409 439L491 379L573 343L655 391L736 409L818 397L900 445L900 311L818 299L736 287L655 179L573 209L491 239L409 329L327 323L245 233L164 245L82 245L0 155Z" fill="#162032"></path><path d="M0 553L82 505L164 517L245 475L327 511L409 529L491 523L573 487L655 475L736 523L818 517L900 553L900 443L818 395L736 407L655 389L573 341L491 377L409 437L327 413L245 371L164 383L82 377L0 407Z" fill="#121b2e"></path><path d="M0 601L82 601L164 601L245 601L327 601L409 601L491 601L573 601L655 601L736 601L818 601L900 601L900 551L818 515L736 521L655 473L573 485L491 521L409 527L327 509L245 473L164 515L82 503L0 551Z" fill="#0f172a"></path></svg>