<svg id="visual" viewBox="0 0 900 600" width="900" height="600" xmlns="http://www.w3.org/2000/svg" xmlns:xlink="http://www.w3.org/1999/xlink" version="1.1"><path d="M0 55L82 37L164 73L245 85L327 79L409 43L491 103L573 61L655 67L736 43L818 43L900 55L900 0L818 0L736 0L655 0L573 0L491 0L409 0L327 0L245 0L164 0L82 0L0 0Z" fill="#1e293b"></path><path d="M0 229L82 229L164 211L245 301L327 217L409 199L491 253L573 193L655 277L736 139L818 271L900 349L900 53L818 41L736 41L655 65L573 59L491 101L409 41L327 77L245 83L164 71L82 35L0 53Z" fill="#1a2436"></path><path d="M0 331L82 271L164 289L245 379L327 289L409 319L491 361L573 295L655 397L736 229L818 367L900 409L900 347L818 269L736 137L655 275L573 191L491 251L409 197L327 215L245 299L164 209L82 227L0 227Z" fill="#162032"></path><path d="M0 493L82 517L164 451L245 487L327 541L409 529L491 505L573 523L655 523L736 481L818 457L900 541L900 407L818 365L736 227L655 395L573 293L491 359L409 317L327 287L245 377L164 287L82 269L0 329Z" fill="#121b2e"></path><path d="M0 601L82 601L164 601L245 601L327 601L409 601L491 601L573 601L655 601L736 601L818 601L900 601L900 539L818 455L736 479L655 521L573 521L491 503L409 527L327 539L245 485L164 449L82 515L0 491Z" fill="#0f172a"></path></svg>