<svg id="visual" viewBox="0 0 900 600" width="900" height="600" xmlns="http://www.w3.org/2000/svg" xmlns:xlink="http://www.w3.org/1999/xlink" version="1.1"><path d="M0 91L82 85L164 91L245 115L327 61L409 109L491 55L573 79L655 103L736 43L818 121L900 127L900 0L818 0L736 0L655 0L573 0L491 0L409 0L327 0L245 0L164 0L82 0L0 0Z" fill="#1e293b"></path><path d="M0 241L82 187L164 181L245 163L327 145L409 235L491 109L573 211L655 217L736 181L818 259L900 265L900 125L818 119L736 41L655 101L573 77L491 53L409 107L327 59L245 113L164 89L82 83L0 89Z" fill="#1a2436"></path><path d="M0 307L82 223L164 223L245 253L327 187L409 325L491 187L573 277L655 277L736 253L818 355L900 319L900 263L818 257L736 179L655 215L573 209L491 107L409 233L327 143L245 161L164 179L82 185L0 239Z" fill="#162032"></path><path d="M0 463L82 409L164 313L245 397L327 391L409 463L491 367L573 457L655 469L736 415L818 523L900 439L900 317L818 353L736 251L655 275L573 275L491 185L409 323L327 185L245 251L164 221L82 221L0 305Z" fill="#121b2e"></path><path d="M0 601L82 601L164 601L245 601L327 601L409 601L491 601L573 601L655 601L736 601L818 601L900 601L900 437L818 521L736 413L655 467L573 455L491 365L409 461L327 389L245 395L164 311L82 407L0 461Z" fill="#0f172a"></path></svg>