<svg id="visual" viewBox="0 0 900 600" width="900" height="600" xmlns="http://www.w3.org/2000/svg" xmlns:xlink="http://www.w3.org/1999/xlink" version="1.1"><path d="M0 67L82 37L164 55L245 97L327 73L409 43L491 97L573 91L655 55L736 97L818 49L900 103L900 0L818 0L736 0L655 0L573 0L491 0L409 0L327 0L245 0L164 0L82 0L0 0Z" fill="#1e293b"></path><path d="M0 175L82 139L164 163L245 139L327 193L409 163L491 145L573 187L655 139L736 217L818 163L900 211L900 101L818 47L736 95L655 53L573 89L491 95L409 41L327 71L245 95L164 53L82 35L0 65Z" fill="#1a2436"></path><path d="M0 403L82 307L164 409L245 301L327 373L409 361L491 361L573 283L655 235L736 379L818 253L900 283L900 209L818 161L736 215L655 137L573 185L491 143L409 161L327 191L245 137L164 161L82 137L0 173Z" fill="#162032"></path><path d="M0 475L82 409L164 499L245 463L327 481L409 475L491 517L573 421L655 307L736 457L818 319L900 409L900 281L818 251L736 377L655 233L573 281L491 359L409 359L327 371L245 299L164 407L82 305L0 401Z" fill="#121b2e"></path><path d="M0 601L82 601L164 601L245 601L327 601L409 601L491 601L573 601L655 601L736 601L818 601L900 601L900 407L818 317L736 455L655 305L573 419L491 515L409 473L327 479L245 461L164 497L82 407L0 473Z" fill="#0f172a"></path></svg>